HIERARCHY
ROOT Hips
{
	OFFSET -0.001795 -0.223333 0.028219
	CHANNELS 6 Xposition Yposition Zposition Zrotation Yrotation Xrotation 
	JOINT LeftUpLeg
	{
		OFFSET 0.069520 -0.091406 -0.006815
		CHANNELS 3 Zrotation Yrotation Xrotation
		JOINT LeftLeg
		{
			OFFSET 0.034277 -0.375199 -0.004496
			CHANNELS 3 Zrotation Yrotation Xrotation
			JOINT LeftFoot
			{
				OFFSET -0.013596 -0.397961 -0.043693
				CHANNELS 3 Zrotation Yrotation Xrotation
				JOINT LeftToe
				{
					OFFSET 0.026358 -0.055791 0.119288
					CHANNELS 3 Zrotation Yrotation Xrotation
					End Site
					{
						OFFSET 0.000000 0.000000 0.000000
					}
				}
			}
		}
	}
	JOINT RightUpLeg
	{
		OFFSET -0.067670 -0.090522 -0.004320
		CHANNELS 3 Zrotation Yrotation Xrotation
		JOINT RightLeg
		{
			OFFSET -0.038290 -0.382569 -0.008850
			CHANNELS 3 Zrotation Yrotation Xrotation
			JOINT RightFoot
			{
				OFFSET 0.015774 -0.398415 -0.042312
				CHANNELS 3 Zrotation Yrotation Xrotation
				JOINT RightToe
				{
					OFFSET -0.025372 -0.048144 0.123348
					CHANNELS 3 Zrotation Yrotation Xrotation
					End Site
					{
						OFFSET 0.000000 0.000000 0.000000
					}
				}
			}
		}
	}
	JOINT Spine
	{
		OFFSET -0.002533 0.108963 -0.026696
		CHANNELS 3 Zrotation Yrotation Xrotation
		JOINT Spine1
		{
			OFFSET 0.005487 0.135180 0.001092
			CHANNELS 3 Zrotation Yrotation Xrotation
			JOINT Spine2
			{
				OFFSET 0.001457 0.052922 0.025425
				CHANNELS 3 Zrotation Yrotation Xrotation
				JOINT Neck
				{
					OFFSET -0.002778 0.213870 -0.042857
					CHANNELS 3 Zrotation Yrotation Xrotation
					JOINT Head
					{
						OFFSET 0.005152 0.064970 0.051349
						CHANNELS 3 Zrotation Yrotation Xrotation
						End Site
						{
							OFFSET 0.000000 0.000000 0.000000
						}
					}
				}
				JOINT LeftShoulder
				{
					OFFSET 0.078845 0.121749 -0.034090
					CHANNELS 3 Zrotation Yrotation Xrotation
					JOINT LeftArm
					{
						OFFSET 0.090977 0.030469 -0.008868
						CHANNELS 3 Zrotation Yrotation Xrotation
						JOINT LeftForeArm
						{
							OFFSET 0.259612 -0.012772 -0.027456
							CHANNELS 3 Zrotation Yrotation Xrotation
							JOINT LeftHand
							{
								OFFSET 0.249234 0.008986 -0.001171
								CHANNELS 3 Zrotation Yrotation Xrotation
								End Site
								{
									OFFSET 0.000000 0.000000 0.000000
								}
							}
						}
					}
				}
				JOINT RightShoulder
				{
					OFFSET -0.081759 0.118833 -0.038615
					CHANNELS 3 Zrotation Yrotation Xrotation
					JOINT RightArm
					{
						OFFSET -0.096012 0.032551 -0.009143
						CHANNELS 3 Zrotation Yrotation Xrotation
						JOINT RightForeArm
						{
							OFFSET -0.253742 -0.013329 -0.021401
							CHANNELS 3 Zrotation Yrotation Xrotation
							JOINT RightHand
							{
								OFFSET -0.255298 0.007772 -0.005559
								CHANNELS 3 Zrotation Yrotation Xrotation
								End Site
								{
									OFFSET 0.000000 0.000000 0.000000
								}
							}
						}
					}
				}
			}
		}
	}
}
MOTION
Frames: 13
Frame Time: 0.050000
0.005300 0.956172 0.005710 -0.152805 -3.070274 4.433383 4.966262 -0.160700 -1.668738 -0.367787 0.185603 -4.627087 -1.066643 3.359831 14.868836 0.000000 0.000000 0.000000 -5.144716 0.384971 -3.262207 0.220269 -0.100964 -2.104868 1.231898 -3.763512 13.821285 0.000000 0.000000 0.000000 0.293154 0.133573 -3.064260 -0.671787 0.326167 -0.385517 0.943326 0.869392 2.204551 5.050427 -1.722451 -17.876469 0.000000 0.000000 0.000000 -24.425604 -7.272082 2.177305 -47.439620 4.589506 -7.148796 -5.638983 -20.183456 1.758043 0.000000 0.000000 0.000000 14.931063 8.727729 2.689130 26.924506 28.215215 2.985530 -101.900718 22.913807 -23.942752 0.000000 0.000000 0.000000 
0.005222 0.956241 0.005686 -0.165960 -2.396440 4.653989 4.893788 -0.182270 -1.919674 -0.105162 0.172894 -4.827902 -1.397491 2.948891 14.907614 0.000000 0.000000 0.000000 -4.940613 0.362523 -2.985654 -0.223601 -0.102226 -3.008260 1.262523 -3.865146 14.539406 0.000000 0.000000 0.000000 0.237518 0.138355 -3.210988 -0.394072 0.197213 -0.474811 0.562307 1.141143 2.413117 4.783766 -1.432335 -18.472670 0.000000 0.000000 0.000000 -24.951808 -8.097612 2.435884 -46.935618 3.711230 -6.702404 -4.712694 -20.510553 1.605706 0.000000 0.000000 0.000000 15.981563 9.009546 2.986748 26.783550 28.230411 2.913964 -98.800574 20.900016 -20.105367 0.000000 0.000000 0.000000 
0.005051 0.955887 0.005616 -0.069984 -1.780699 4.420471 5.105814 -0.163235 -1.441178 -0.553780 0.221958 -5.429668 -1.771600 2.475100 14.966726 0.000000 0.000000 0.000000 -4.896241 0.338610 -2.728389 -0.354592 -0.089535 -2.942731 0.904008 -4.446292 14.623028 0.000000 0.000000 0.000000 -0.207469 0.128954 -3.075144 -0.316714 0.148020 0.263519 0.970342 1.144537 1.573873 4.040798 -0.993323 -18.264978 0.000000 0.000000 0.000000 -24.932140 -8.280035 2.427540 -46.483001 3.170367 -6.344034 -5.834518 -21.419168 1.876946 0.000000 0.000000 0.000000 16.858283 9.529090 3.283371 27.239981 28.467518 3.089768 -93.300508 18.389570 -15.682097 0.000000 0.000000 0.000000 
0.004938 0.955548 0.005457 -0.051351 -1.033366 4.249938 5.233923 -0.176149 -1.585525 -0.693101 0.219743 -5.103560 -2.112793 1.977371 14.753776 0.000000 0.000000 0.000000 -4.775236 0.319916 -2.595810 -0.292709 -0.092014 -2.899839 0.234620 -5.663171 15.023141 0.000000 0.000000 0.000000 -0.126513 0.113478 -2.732859 -0.331868 0.155408 0.168334 0.784859 1.433437 1.494916 3.977977 -0.885525 -18.240140 0.000000 0.000000 0.000000 -24.964104 -8.822136 2.497582 -45.703288 2.631191 -5.962746 -6.054369 -22.056326 1.953186 0.000000 0.000000 0.000000 18.305835 9.583456 3.505721 27.468582 28.364571 3.065806 -90.511096 16.612489 -12.933362 0.000000 0.000000 0.000000 
0.004893 0.955241 0.005166 0.142376 -0.315634 4.242134 5.119073 -0.192936 -1.803268 -0.760555 0.219010 -4.975580 -2.464034 1.502252 14.679298 0.000000 0.000000 0.000000 -5.001633 0.318719 -2.654179 -0.078441 -0.107073 -2.867103 -0.304223 -6.640622 15.485182 0.000000 0.000000 0.000000 -0.138126 0.114936 -2.814065 -0.273850 0.109322 0.887281 0.517841 1.393863 1.116572 3.805188 -0.784708 -17.842511 0.000000 0.000000 0.000000 -24.853757 -9.092959 2.509300 -45.515659 2.265878 -5.737699 -6.121003 -22.452655 1.987949 0.000000 0.000000 0.000000 19.378593 9.737351 3.702623 27.724469 27.923451 3.012628 -92.264609 17.217863 -13.790606 0.000000 0.000000 0.000000 
0.004807 0.955172 0.004829 0.319275 -0.777930 4.011796 4.896650 -0.168511 -1.470173 -0.767325 0.221821 -5.016797 -2.264628 1.766465 14.722183 0.000000 0.000000 0.000000 -5.548423 0.326203 -2.634329 0.509546 -0.139631 -2.489728 -0.107223 -6.217887 14.977279 0.000000 0.000000 0.000000 -0.069317 0.098137 -2.377684 -0.741153 0.342708 0.581405 0.691520 1.114143 1.281563 3.829568 -0.896152 -17.504051 0.000000 0.000000 0.000000 -24.183492 -9.279768 2.841428 -45.856395 2.994103 -6.116997 -6.587111 -23.394847 2.189801 0.000000 0.000000 0.000000 18.947432 10.038863 3.706810 28.884170 28.062873 3.274344 -96.988370 19.783105 -17.980796 0.000000 0.000000 0.000000 
0.004685 0.955608 0.004496 0.297966 -1.262832 4.098684 4.717766 -0.169134 -1.578231 -0.466036 0.198579 -4.883575 -2.021244 2.113171 14.823030 0.000000 0.000000 0.000000 -5.631783 0.335846 -2.671268 0.506583 -0.152444 -2.880245 0.364682 -5.577971 15.375669 0.000000 0.000000 0.000000 0.306815 0.100432 -2.418679 -0.909943 0.424571 0.642844 0.510480 0.777054 1.503115 3.368087 -0.660081 -17.796480 0.000000 0.000000 0.000000 -23.986173 -8.856170 2.786447 -46.044774 3.385224 -6.352433 -6.323321 -23.360525 2.153291 0.000000 0.000000 0.000000 18.368692 10.363106 3.733973 29.103783 27.860858 3.288752 -107.011853 23.750643 -26.721849 0.000000 0.000000 0.000000 
0.004353 0.955760 0.004254 0.460066 -2.483773 4.162861 4.335392 -0.121821 -0.904551 -0.246642 0.217911 -5.858052 -1.508644 2.874400 15.243858 0.000000 0.000000 0.000000 -6.070414 0.370493 -2.909862 0.805475 -0.178538 -3.057004 0.998339 -4.664362 15.408646 0.000000 0.000000 0.000000 0.343921 0.097939 -2.321931 -1.110814 0.526822 0.475172 0.587226 0.771579 1.831788 3.432448 -0.775891 -17.733400 0.000000 0.000000 0.000000 -23.584010 -9.126254 3.190673 -46.492851 4.077279 -6.752127 -7.031320 -23.834238 2.372031 0.000000 0.000000 0.000000 16.803256 11.068153 3.931846 28.119274 28.318043 3.234891 -117.698820 27.672098 -38.516901 0.000000 0.000000 0.000000 
0.003993 0.956071 0.004167 0.289177 -3.635862 4.020408 4.297015 -0.082687 -0.405713 0.020472 0.211523 -6.097177 -0.954583 3.616558 15.406437 0.000000 0.000000 0.000000 -5.732225 0.376110 -2.881402 0.432746 -0.148955 -3.017348 1.589110 -3.668855 15.033084 0.000000 0.000000 0.000000 0.466650 0.085218 -2.015231 -1.101695 0.526611 0.255365 0.541072 1.049697 1.868577 3.676736 -0.964060 -17.563190 0.000000 0.000000 0.000000 -22.822280 -8.981691 3.204945 -47.123348 4.563542 -7.055107 -7.626008 -23.594106 2.479501 0.000000 0.000000 0.000000 15.460090 11.690243 4.166464 26.850095 29.489194 3.255903 -125.444079 28.950690 -46.626689 0.000000 0.000000 0.000000 
0.003797 0.956161 0.004188 0.349733 -4.297962 3.696127 4.109113 -0.023183 0.443157 0.152268 0.230489 -6.766697 -0.705185 3.980346 15.650557 0.000000 0.000000 0.000000 -5.741991 0.364131 -2.547611 -0.144082 -0.117110 -3.246736 2.538527 -2.142607 15.204376 0.000000 0.000000 0.000000 0.470897 0.065077 -1.572221 -1.043042 0.500099 0.666795 0.553692 0.828407 1.513847 3.472468 -0.833584 -18.177424 0.000000 0.000000 0.000000 -22.312541 -8.354765 2.995631 -47.809223 4.771961 -7.254060 -8.156864 -24.139099 2.672364 0.000000 0.000000 0.000000 13.959352 11.948890 4.147365 25.373690 31.409306 3.378987 -128.872345 30.658758 -52.998046 0.000000 0.000000 0.000000 
0.003805 0.956246 0.004246 0.277210 -4.669799 3.249415 4.082904 0.040158 1.368377 0.279226 0.250127 -7.398858 -0.593704 4.151416 15.815290 0.000000 0.000000 0.000000 -5.462766 0.319241 -1.811050 -0.546430 -0.102926 -3.554833 2.765300 -1.623547 14.793867 0.000000 0.000000 0.000000 0.500319 0.030403 -0.834910 -1.078847 0.518083 0.301470 0.648359 0.971439 1.605232 3.906871 -1.118920 -17.897498 0.000000 0.000000 0.000000 -22.392406 -8.578246 3.155130 -47.664914 5.118933 -7.378254 -8.380530 -25.229017 2.854659 0.000000 0.000000 0.000000 12.976342 12.401781 4.345763 23.606649 32.311100 3.157488 -128.321694 30.639695 -52.488034 0.000000 0.000000 0.000000 
0.004127 0.956267 0.004356 0.256052 -4.756522 3.013499 3.890175 0.084766 1.975231 0.606802 0.259085 -7.970644 -0.598214 4.171503 15.944557 0.000000 0.000000 0.000000 -5.436162 0.276447 -1.008029 -0.716264 -0.114010 -4.069296 2.998438 -0.900343 14.107083 0.000000 0.000000 0.000000 0.402973 0.026098 -0.711273 -0.924816 0.444499 0.419802 0.525797 0.621112 1.529972 4.304984 -1.321902 -18.428505 0.000000 0.000000 0.000000 -21.808553 -7.834822 2.824558 -48.329657 5.291582 -7.569608 -8.815201 -26.387985 3.115616 0.000000 0.000000 0.000000 12.095421 12.407874 4.269557 24.193455 33.327800 3.470024 -124.312516 30.013952 -48.055288 0.000000 0.000000 0.000000 
0.004501 0.956596 0.004542 0.257920 -4.725677 3.046931 4.054328 0.092038 2.168528 0.271117 0.291790 -8.366756 -0.678834 4.108925 16.147562 0.000000 0.000000 0.000000 -5.444690 0.265445 -0.776921 -0.766773 -0.123514 -4.361223 3.050032 -0.761822 14.025977 0.000000 0.000000 0.000000 0.392796 0.041353 -1.036718 -1.065025 0.511858 0.486480 0.440301 0.602825 1.670434 4.895600 -1.653470 -18.449663 0.000000 0.000000 0.000000 -21.731405 -7.724797 2.762015 -48.583609 5.372032 -7.655085 -8.870401 -28.292362 3.376425 0.000000 0.000000 0.000000 11.679866 11.803441 3.993040 25.839147 33.889069 3.933374 -117.377102 29.344165 -41.555837 0.000000 0.000000 0.000000 
